# xmcd CD database file
#
# Track frame offsets:
#	150
#	12970
#	50410
#	89697
#	117060
#	146062
#	176525
#	189732
#	218545
#	244740
#	269062
#
# Disc length: 4193 seconds
#
# Revision: 0
# Processed by: cddbd v1.5.1PL0 Copyright (c) Steve Scherf et al.
# Submitted via: CDex 1.51
#
DISCID=9f105f0b
DTITLE=Key - Authorized Anthology Drama CD Kanon 風の辿り着く場所
DYEAR=2002
DGENRE=Game
TTITLE0=夢の通い路
TTITLE1=これからの想い出のこと
TTITLE2=名雪の夢
TTITLE3=舞の夢
TTITLE4=栞の夢
TTITLE5=真琴の夢
TTITLE6=あゆの夢
TTITLE7=季節の名残
TTITLE8=いつか、遠い日
TTITLE9=風の辿り着く場所
TTITLE10=堀江由衣
EXTD=YEAR: 2002/05/25
EXTT0=
EXTT1=
EXTT2=
EXTT3=
EXTT4=
EXTT5=
EXTT6=
EXTT7=
EXTT8=
EXTT9=
EXTT10=
PLAYORDER=
